<?xml version="1.0" standalone="no"?><!DOCTYPE svg PUBLIC "-//W3C//DTD SVG 1.1//EN" "http://www.w3.org/Graphics/SVG/1.1/DTD/svg11.dtd"><svg t="1555241416449" class="icon" style="" viewBox="0 0 1024 1024" version="1.1" xmlns="http://www.w3.org/2000/svg" p-id="1828" xmlns:xlink="http://www.w3.org/1999/xlink" width="32" height="32"><defs><style type="text/css"></style></defs><path d="M509.952 45.056C249.856 45.056 40.96 256 40.96 516.096s210.944 468.992 468.992 468.992c260.096 0 468.992-210.944 468.992-468.992 0-260.096-210.944-471.04-468.992-471.04z m57.344 745.472c-16.384 16.384-34.816 22.528-57.344 22.528-22.528 0-40.96-8.192-57.344-22.528-16.384-14.336-22.528-32.768-22.528-55.296s8.192-40.96 22.528-55.296c16.384-16.384 34.816-22.528 57.344-22.528 22.528 0 40.96 8.192 57.344 22.528 16.384 16.384 22.528 34.816 22.528 55.296 0 22.528-8.192 40.96-22.528 55.296z m22.528-251.904c0 45.056-36.864 79.872-79.872 79.872S430.08 581.632 430.08 538.624V296.96c0-45.056 36.864-79.872 79.872-79.872s79.872 36.864 79.872 79.872v241.664z" p-id="1829" fill="#bfbfbf"></path></svg>